<svg xmlns="http://www.w3.org/2000/svg" width="20.008" height="20.012" viewBox="0 0 20.008 20.012"><g transform="translate(60.423 26.458)"><path d="M7.5,15.009a7.448,7.448,0,0,0,4.024-1.181l5.718,5.717a1.635,1.635,0,0,0,2.3-.008,1.647,1.647,0,0,0,0-2.3l-5.712-5.712A7.5,7.5,0,1,0,7.5,15.009Zm11.444,2.818a.8.8,0,0,1,0,1.122.828.828,0,0,1-1.12,0l-5.613-5.613a7.563,7.563,0,0,0,1.12-1.12ZM7.5.834A6.671,6.671,0,1,1,.834,7.5,6.679,6.679,0,0,1,7.5.834Z" transform="translate(-60.423 -26.458)" fill="#b5b5b5"/></g></svg>